<?xml version="1.0" standalone="no"?>
<!DOCTYPE svg PUBLIC "-//W3C//DTD SVG 20010904//EN"
 "http://www.w3.org/TR/2001/REC-SVG-20010904/DTD/svg10.dtd">
<svg version="1.0" xmlns="http://www.w3.org/2000/svg"
 width="300.000000pt" height="251.000000pt" viewBox="0 0 300.000000 251.000000"
 preserveAspectRatio="xMidYMid meet">
<metadata>
Created by potrace 1.10, written by Peter Selinger 2001-2011
</metadata>
<g transform="translate(0.000000,251.000000) scale(0.050000,-0.050000)"
fill="#1d1b1b" stroke="none">
<path d="M3760 4657 c-45 -18 -222 -72 -480 -147 -49 -15 -211 -63 -360 -109
-148 -45 -319 -96 -380 -113 -122 -34 -500 -148 -700 -211 -71 -23 -233 -71
-360 -107 -126 -37 -270 -80 -320 -97 -49 -16 -155 -49 -234 -72 -82 -24 -169
-64 -200 -93 l-56 -52 -10 -470 c-5 -258 -4 -474 4 -479 8 -5 256 -10 550 -13
607 -5 634 -11 712 -162 80 -153 39 -327 -101 -421 l-74 -51 -746 0 c-770 0
-834 -6 -913 -85 -125 -125 -95 -409 51 -489 62 -33 151 -36 1285 -41 l1218
-5 67 -51 c187 -143 185 -403 -5 -529 -74 -50 -79 -50 -637 -60 -493 -9 -570
-14 -617 -45 -171 -113 -177 -375 -10 -496 l82 -59 1824 0 1823 0 90 59 c151
101 179 184 173 513 l-6 275 -363 -5 c-388 -5 -447 10 -447 117 0 116 21 121
560 121 711 0 660 -52 660 681 0 744 74 685 -860 676 -726 -7 -725 -8 -725
115 0 124 32 131 634 127 l541 -4 6 275 c6 323 -20 406 -160 503 l-83 57
-1601 0 c-1528 -1 -1768 -8 -1741 -51 6 -10 0 -20 -15 -21 -28 -2 83 -33 164
-46 86 -13 489 -40 510 -34 11 4 97 4 190 2 94 -2 184 -4 200 -3 17 0 251 1
520 0 270 0 504 0 520 1 614 14 1171 -4 1151 -37 -5 -7 11 -13 35 -12 31 1 42
-9 38 -34 -4 -24 4 -31 25 -22 23 8 28 3 19 -21 -9 -23 -4 -29 18 -21 32 12
66 -21 39 -38 -9 -5 -11 -70 -5 -142 13 -151 -11 -192 -112 -192 -32 0 -112
-1 -178 -2 -66 -1 -174 1 -240 3 -269 11 -427 -19 -502 -93 -37 -38 -68 -61
-68 -53 0 9 -17 -12 -39 -47 -36 -59 -37 -105 -6 -187 6 -16 10 -38 7 -47 -2
-10 12 -12 32 -5 23 8 16 -6 -19 -37 -31 -27 -69 -44 -85 -38 -18 7 -30 0 -30
-16 0 -15 -33 -54 -74 -87 -115 -94 -166 -153 -166 -194 0 -20 -13 -58 -30
-83 -37 -57 -32 -353 8 -400 14 -17 20 -41 13 -52 -8 -12 2 -21 20 -21 27 0
31 -13 20 -70 -13 -71 3 -88 44 -47 17 17 29 10 47 -28 12 -29 44 -57 69 -63
28 -7 49 -30 53 -57 7 -49 69 -66 320 -83 170 -12 164 -7 158 -139 -3 -76 4
-113 26 -132 18 -14 27 -34 21 -43 -6 -10 2 -18 18 -18 16 0 34 -14 41 -31 23
-62 146 -91 366 -88 160 3 215 -3 228 -23 15 -24 21 -23 37 2 16 24 19 22 18
-10 -1 -22 1 -110 3 -195 5 -187 -53 -281 -180 -292 -446 -38 -3560 -4 -3560
39 0 11 9 15 20 8 32 -20 23 43 -10 70 -16 14 -30 42 -30 62 0 37 18 46 83 39
17 -1 37 10 43 25 12 32 669 44 775 14 36 -11 55 -10 48 1 -6 11 23 19 65 19
85 1 221 56 263 107 16 18 39 33 53 33 14 0 31 13 37 30 7 16 22 30 34 30 12
0 16 -9 9 -20 -7 -11 -3 -20 9 -20 13 0 20 29 18 68 -3 41 8 80 29 101 36 36
40 234 5 289 -15 25 -20 47 -28 138 -2 15 -12 21 -22 15 -28 -18 -120 69 -107
101 5 16 -2 29 -17 30 -15 1 -45 4 -67 5 -22 2 -39 12 -37 23 2 11 -62 23
-150 26 -84 4 -184 10 -223 14 -38 4 -516 8 -1061 9 -869 2 -997 6 -1036 33
-25 18 -51 27 -57 20 -7 -6 -26 7 -42 30 -39 56 2 138 69 138 27 0 47 12 47
28 0 31 1225 32 1495 2 105 -11 125 -9 125 17 0 21 -19 30 -59 29 -33 -1 -56
-8 -52 -15 5 -7 -9 -14 -30 -16 -21 -1 -43 6 -50 16 -6 11 7 19 30 19 22 0 41
7 41 15 0 8 29 16 63 17 37 2 75 18 91 40 15 21 32 36 37 33 23 -12 50 -3 40
14 -6 10 9 21 34 25 31 4 45 20 46 50 0 24 15 60 32 80 17 20 28 47 23 60 -5
13 1 42 14 65 14 27 15 53 3 75 -11 20 -12 53 -2 78 12 32 9 48 -12 56 -16 6
-29 23 -29 37 0 15 -36 62 -79 104 -44 43 -75 85 -69 95 6 9 4 15 -6 13 -9 -2
-29 2 -46 8 -173 65 -253 75 -604 75 -201 0 -387 6 -412 13 l-47 12 7 339 6
339 70 42 c39 24 75 48 80 54 19 21 70 28 174 25 57 -2 109 5 116 16 7 11 -4
20 -24 21 -75 1 25 37 166 59 76 12 141 31 145 41 3 10 24 19 45 19 21 0 38 8
38 17 0 9 26 16 57 16 44 0 55 -8 49 -33 -5 -18 6 -45 24 -60 29 -24 31 -21
19 27 -8 33 -5 53 9 53 12 0 22 -20 22 -45 0 -51 183 -49 630 4 401 47 1199
131 1520 159 l140 12 6 251 c8 359 -122 510 -356 416z m154 -201 c16 -12 22
-39 14 -61 -8 -26 -5 -35 9 -27 13 8 19 -11 17 -53 -5 -75 -74 -155 -135 -155
-22 0 -63 -15 -90 -32 -27 -18 -71 -28 -98 -23 -27 5 -60 2 -74 -7 -14 -9 -37
-6 -51 6 -19 15 -26 14 -26 -2 0 -13 -39 -22 -97 -22 -53 0 -103 -6 -110 -14
-8 -8 -43 -16 -79 -18 -240 -14 -294 -19 -294 -30 0 -6 -47 -13 -105 -16 -238
-10 -335 -20 -372 -41 -61 -32 -104 -27 -89 12 8 21 3 29 -12 24 -14 -4 -24
-16 -22 -26 5 -26 -43 -47 -99 -42 -81 7 -69 46 19 61 67 11 79 20 70 50 -11
34 -6 35 49 14 51 -19 64 -17 86 12 15 21 57 36 108 39 46 3 79 9 75 14 -16
15 240 103 292 100 93 -6 103 -1 92 46 -7 25 -6 34 0 20 16 -36 147 -32 161 4
6 17 44 35 84 42 90 15 261 65 305 89 19 10 42 9 55 -2 13 -10 18 -12 13 -5
-44 61 235 101 304 43z m-1934 -536 c0 -11 -13 -20 -30 -20 -16 0 -30 -13 -30
-29 0 -16 -10 -35 -23 -43 -14 -9 -18 -5 -9 9 8 13 5 23 -7 23 -11 0 -21 -11
-21 -24 0 -13 -13 -6 -28 15 -35 47 -31 52 48 59 34 3 68 11 74 18 18 17 26
15 26 -8z m3655 -1965 l-5 -465 -712 0 -711 0 -98 60 c-322 200 -316 646 11
815 l107 55 707 0 707 0 -6 -465z"/>
<path d="M4264 2129 c-63 -27 -124 -118 -124 -186 0 -116 209 -211 305 -138
173 131 19 408 -181 324z"/>
</g>
</svg>
